<svg viewBox="-300 -80 1980 960" xmlns="http://www.w3.org/2000/svg" font-family="Arial, sans-serif" width="1400">

  <!-- ===== OUTER FRAME ===== -->
  <rect x="0" y="0" width="1366" height="768" fill="white" stroke="black" stroke-width="1.5"/>

  <!-- === TOP DIMENSION: 1366 px === -->
  <line x1="0" y1="-40" x2="1366" y2="-40" stroke="black" stroke-width="1"/>
  <line x1="0" y1="-46" x2="0" y2="-34" stroke="black" stroke-width="1"/>
  <line x1="1366" y1="-46" x2="1366" y2="-34" stroke="black" stroke-width="1"/>
  <text x="683" y="-44" text-anchor="middle" font-size="14">1366 px</text>

  <!-- === RIGHT DIMENSION: 768 px === -->
  <line x1="1440" y1="0" x2="1440" y2="768" stroke="black" stroke-width="1"/>
  <line x1="1434" y1="0" x2="1446" y2="0" stroke="black" stroke-width="1"/>
  <line x1="1434" y1="768" x2="1446" y2="768" stroke="black" stroke-width="1"/>
  <text x="1465" y="388" text-anchor="middle" font-size="14" transform="rotate(90,1465,388)">768 px</text>

  <!-- ===== SIDEBAR (220px) ===== -->
  <!-- Vertical separator -->
  <line x1="220" y1="0" x2="220" y2="768" stroke="black" stroke-width="1.5"/>

  <!-- Logo -->
  <rect x="0" y="0" width="220" height="42" fill="white" stroke="black" stroke-width="2"/>
  <text x="110" y="27" text-anchor="middle" font-size="15" font-weight="bold">Фонотека</text>

  <!-- 40px annotation for logo height -->
  <line x1="225" y1="0" x2="225" y2="42" stroke="black" stroke-width="0.8"/>
  <line x1="220" y1="0" x2="230" y2="0" stroke="black" stroke-width="0.8"/>
  <line x1="220" y1="42" x2="230" y2="42" stroke="black" stroke-width="0.8"/>
  <text x="233" y="25" font-size="11">40 px</text>

  <!-- Nav items -->
  <rect x="0" y="46" width="220" height="36" fill="white" stroke="black" stroke-width="1"/>
  <text x="110" y="69" text-anchor="middle" font-size="13">Каталог</text>

  <rect x="0" y="82" width="220" height="36" fill="white" stroke="black" stroke-width="1"/>
  <text x="110" y="105" text-anchor="middle" font-size="13">Моя фонотека</text>

  <rect x="0" y="118" width="220" height="36" fill="white" stroke="black" stroke-width="1"/>
  <text x="110" y="141" text-anchor="middle" font-size="13">Плейлисты</text>

  <rect x="0" y="154" width="220" height="36" fill="white" stroke="black" stroke-width="1"/>
  <text x="110" y="177" text-anchor="middle" font-size="13">Рекомендации</text>

  <rect x="0" y="190" width="220" height="36" fill="white" stroke="black" stroke-width="1"/>
  <text x="110" y="213" text-anchor="middle" font-size="13">ИИ-ассистент</text>

  <rect x="0" y="226" width="220" height="36" fill="white" stroke="black" stroke-width="1"/>
  <text x="110" y="249" text-anchor="middle" font-size="13">Статистика</text>

  <!-- 36px annotation for nav item -->
  <line x1="225" y1="46" x2="225" y2="82" stroke="black" stroke-width="0.8"/>
  <line x1="220" y1="46" x2="230" y2="46" stroke="black" stroke-width="0.8"/>
  <line x1="220" y1="82" x2="230" y2="82" stroke="black" stroke-width="0.8"/>
  <text x="233" y="68" font-size="11">36 px</text>

  <!-- User / Logout at bottom of sidebar -->
  <rect x="0" y="690" width="220" height="36" fill="white" stroke="black" stroke-width="1"/>
  <text x="110" y="713" text-anchor="middle" font-size="13">Имя пользователя</text>

  <rect x="0" y="730" width="220" height="36" fill="white" stroke="black" stroke-width="1"/>
  <text x="110" y="753" text-anchor="middle" font-size="13">Выйти</text>

  <!-- BOTTOM dimension: 220 px sidebar width -->
  <line x1="0" y1="810" x2="220" y2="810" stroke="black" stroke-width="1"/>
  <line x1="0" y1="804" x2="0" y2="816" stroke="black" stroke-width="1"/>
  <line x1="220" y1="804" x2="220" y2="816" stroke="black" stroke-width="1"/>
  <text x="110" y="828" text-anchor="middle" font-size="13">220 px</text>

  <!-- ===== CONTENT AREA ===== -->

  <!-- Page title box -->
  <rect x="232" y="12" width="200" height="42" fill="white" stroke="black" stroke-width="1.5"/>
  <text x="332" y="37" text-anchor="middle" font-size="14" font-weight="bold">Каталог</text>

  <!-- 200px title width annotation -->
  <line x1="232" y1="7" x2="432" y2="7" stroke="black" stroke-width="0.8"/>
  <line x1="232" y1="2" x2="232" y2="12" stroke="black" stroke-width="0.8"/>
  <line x1="432" y1="2" x2="432" y2="12" stroke="black" stroke-width="0.8"/>
  <text x="332" y="4" text-anchor="middle" font-size="11">200 px</text>

  <!-- Search bar -->
  <rect x="232" y="72" width="600" height="42" fill="white" stroke="black" stroke-width="1"/>
  <text x="532" y="97" text-anchor="middle" font-size="13" fill="#aaa">Поиск треков...</text>

  <!-- Genre filter dropdown -->
  <rect x="844" y="72" width="110" height="42" fill="white" stroke="black" stroke-width="1"/>
  <text x="899" y="97" text-anchor="middle" font-size="12">Все жанры ▼</text>

  <!-- 600px search width annotation -->
  <line x1="232" y1="67" x2="832" y2="67" stroke="black" stroke-width="0.8"/>
  <line x1="232" y1="62" x2="232" y2="72" stroke="black" stroke-width="0.8"/>
  <line x1="832" y1="62" x2="832" y2="72" stroke="black" stroke-width="0.8"/>
  <text x="532" y="64" text-anchor="middle" font-size="11">600 px</text>

  <!-- 110px filter width annotation -->
  <line x1="844" y1="67" x2="954" y2="67" stroke="black" stroke-width="0.8"/>
  <line x1="844" y1="62" x2="844" y2="72" stroke="black" stroke-width="0.8"/>
  <line x1="954" y1="62" x2="954" y2="72" stroke="black" stroke-width="0.8"/>
  <text x="899" y="64" text-anchor="middle" font-size="11">110 px</text>

  <!-- 42px height annotation for filter/search -->
  <line x1="962" y1="72" x2="962" y2="114" stroke="black" stroke-width="0.8"/>
  <line x1="957" y1="72" x2="967" y2="72" stroke="black" stroke-width="0.8"/>
  <line x1="957" y1="114" x2="967" y2="114" stroke="black" stroke-width="0.8"/>
  <text x="975" y="97" font-size="11">42 px</text>

  <!-- 730 px total annotation (search + gap + filter) -->
  <line x1="232" y1="810" x2="954" y2="810" stroke="black" stroke-width="1"/>
  <line x1="232" y1="804" x2="232" y2="816" stroke="black" stroke-width="1"/>
  <line x1="954" y1="804" x2="954" y2="816" stroke="black" stroke-width="1"/>
  <text x="593" y="828" text-anchor="middle" font-size="13">730 px</text>

  <!-- ===== TRACK ROWS ===== -->

  <!-- Track 1: y=128 -->
  <rect x="232" y="128" width="1124" height="60" fill="white" stroke="black" stroke-width="1"/>
  <rect x="242" y="133" width="46" height="50" fill="white" stroke="black" stroke-width="1"/>
  <text x="265" y="162" text-anchor="middle" font-size="11">обл.</text>
  <text x="298" y="150" font-size="13" font-weight="bold">Название трека</text>
  <text x="298" y="170" font-size="12" fill="#888">Исполнитель · Альбом</text>
  <text x="1315" y="162" font-size="12">0:00</text>
  <text x="1348" y="163" font-size="14">♥</text>

  <!-- Track 2: y=196 -->
  <rect x="232" y="196" width="1124" height="60" fill="white" stroke="black" stroke-width="1"/>
  <rect x="242" y="201" width="46" height="50" fill="white" stroke="black" stroke-width="1"/>
  <text x="265" y="230" text-anchor="middle" font-size="11">обл.</text>
  <text x="298" y="218" font-size="13" font-weight="bold">Название трека</text>
  <text x="298" y="238" font-size="12" fill="#888">Исполнитель · Альбом</text>
  <text x="1315" y="230" font-size="12">0:00</text>
  <text x="1348" y="231" font-size="14">♥</text>

  <!-- Track 3: y=264 -->
  <rect x="232" y="264" width="1124" height="60" fill="white" stroke="black" stroke-width="1"/>
  <rect x="242" y="269" width="46" height="50" fill="white" stroke="black" stroke-width="1"/>
  <text x="265" y="298" text-anchor="middle" font-size="11">обл.</text>
  <text x="298" y="286" font-size="13" font-weight="bold">Название трека</text>
  <text x="298" y="306" font-size="12" fill="#888">Исполнитель · Альбом</text>
  <text x="1315" y="298" font-size="12">0:00</text>
  <text x="1348" y="299" font-size="14">♥</text>

  <!-- Track 4: y=332 -->
  <rect x="232" y="332" width="1124" height="60" fill="white" stroke="black" stroke-width="1"/>
  <rect x="242" y="337" width="46" height="50" fill="white" stroke="black" stroke-width="1"/>
  <text x="265" y="366" text-anchor="middle" font-size="11">обл.</text>
  <text x="298" y="354" font-size="13" font-weight="bold">Название трека</text>
  <text x="298" y="374" font-size="12" fill="#888">Исполнитель · Альбом</text>
  <text x="1315" y="366" font-size="12">0:00</text>
  <text x="1348" y="367" font-size="14">♥</text>

  <!-- Track 5: y=400 -->
  <rect x="232" y="400" width="1124" height="60" fill="white" stroke="black" stroke-width="1"/>
  <rect x="242" y="405" width="46" height="50" fill="white" stroke="black" stroke-width="1"/>
  <text x="265" y="434" text-anchor="middle" font-size="11">обл.</text>
  <text x="298" y="422" font-size="13" font-weight="bold">Название трека</text>
  <text x="298" y="442" font-size="12" fill="#888">Исполнитель · Альбом</text>
  <text x="1315" y="434" font-size="12">0:00</text>
  <text x="1348" y="435" font-size="14">♥</text>

  <!-- 60px track height annotation -->
  <line x1="1362" y1="128" x2="1362" y2="188" stroke="black" stroke-width="0.8"/>
  <line x1="1357" y1="128" x2="1367" y2="128" stroke="black" stroke-width="0.8"/>
  <line x1="1357" y1="188" x2="1367" y2="188" stroke="black" stroke-width="0.8"/>
  <text x="1370" y="162" font-size="11">60 px</text>

  <!-- ===== LEFT ANNOTATIONS ===== -->

  <!-- tracks: title, duration_sec, file_url -->
  <text x="-280" y="145" font-size="12">таблица: tracks</text>
  <text x="-280" y="161" font-size="12">атрибуты: title,</text>
  <text x="-280" y="177" font-size="12">duration_sec, file_url</text>
  <line x1="-20" y1="161" x2="232" y2="158" stroke="black" stroke-width="0.7"/>

  <!-- artists, albums -->
  <text x="-280" y="228" font-size="12">таблицы: artists, albums</text>
  <text x="-280" y="244" font-size="12">атрибуты: name, title</text>
  <line x1="-20" y1="238" x2="298" y2="238" stroke="black" stroke-width="0.7"/>

  <!-- users -->
  <text x="-280" y="705" font-size="12">таблица: users</text>
  <text x="-280" y="721" font-size="12">атрибут: username</text>
  <line x1="-20" y1="713" x2="0" y2="708" stroke="black" stroke-width="0.7"/>

  <!-- ===== RIGHT ANNOTATIONS ===== -->

  <!-- genres -->
  <text x="1480" y="84" font-size="12">таблица: genres</text>
  <text x="1480" y="100" font-size="12">атрибут: name</text>
  <line x1="1480" y1="92" x2="954" y2="92" stroke="black" stroke-width="0.7"/>

  <!-- user_library -->
  <text x="1480" y="155" font-size="12">таблица: user_library</text>
  <text x="1480" y="171" font-size="12">атрибут: track_id</text>
  <line x1="1480" y1="163" x2="1360" y2="162" stroke="black" stroke-width="0.7"/>

</svg>
